<svg xmlns="http://www.w3.org/2000/svg" width="1500" height="1146" viewBox="0 0 1500 1146" font-family="ui-monospace, Menlo, Consolas, 'DejaVu Sans Mono', monospace" font-size="11">
<style>
.t{fill:#1b1b1b}.d{fill:#5d6d7e}.h{font-weight:700;fill:#1b1b1b}.w{fill:#fff}
.box{fill:#fff;stroke:#1b1b1b;stroke-width:1.2}
.zone{fill:#f4f6f6;stroke:#5d6d7e;stroke-width:1;stroke-dasharray:4 3}
.hdr{fill:#1b1b1b}
.pwr{stroke:#c0392b;stroke-width:3;fill:none}
.pwr2{stroke:#c0392b;stroke-width:1.8;fill:none}
.sig{stroke:#1b1b1b;stroke-width:1.3;fill:none}
.cap{stroke:#7f8c8d;stroke-width:1.2;fill:none;stroke-dasharray:4 3}
.gnd{stroke:#7f8c8d;stroke-width:1.4;fill:none}
.can{stroke:#1f77b4;stroke-width:1.4;fill:none;stroke-dasharray:6 3}
.blu{stroke:#1f77b4;stroke-width:1.3;fill:none}
.org{stroke:#e67e22;stroke-width:1.6;fill:none}
.vio{stroke:#8e44ad;stroke-width:1.3;fill:none}
.gry{stroke:#7f8c8d;stroke-width:1.2;fill:none}
.pnk{stroke:#e84393;stroke-width:1.2;fill:none}
.red{stroke:#c0392b;stroke-width:1.6;fill:none}
.s{font-size:10;fill:#5d6d7e}.b{fill:#1f77b4}.r{fill:#c0392b}
.mono{font-family:ui-monospace, Menlo, Consolas, 'DejaVu Sans Mono', monospace}
</style>
<rect width="1500" height="1146" fill="#fbfbf9"/>
<text x="20" y="30" font-size="18" class="h">DROPS · DP-CLU · DP-DIAG · DP-ICU · DP-DCU · DP-KEY</text>
<text x="20" y="48" class="d">Box-adjacent connectors — not part of any leg</text>
<text x="20.0" y="72.0" class="h" >BOX SIDE — comes from</text>
<text x="300.0" y="72.0" class="h" >CONNECTOR — cavity · circuit · wire · state</text>
<text x="900.0" y="72.0" class="h" >DEVICE END — lands on</text>
<rect x="300.0" y="84.0" width="560.0" height="26.0" rx="3" class="hdr" />
<text x="308.0" y="101.0" class="w" font-weight="700">DP-CLU</text>
<text x="390.0" y="101.0" class="w" >DT06-12S → DT04-12P · 12 cav · Dash post</text>
<rect x="300.0" y="110.0" width="560.0" height="22.0" rx="0" class="box" />
<text x="308.0" y="125.0" class="h" >1</text>
<text x="330.0" y="125.0" class="t" >Cluster IG feed</text>
<text x="700.0" y="125.0" class="b" >16 RED/BLU</text>
<text x="800.0" y="125.0" class="t" >LIVE</text>
<rect x="300.0" y="132.0" width="560.0" height="22.0" rx="0" class="box" />
<text x="308.0" y="147.0" class="h" >2</text>
<text x="330.0" y="147.0" class="t" >Cluster ground</text>
<text x="700.0" y="147.0" class="b" >16 BLK</text>
<text x="800.0" y="147.0" class="t" >LIVE</text>
<rect x="300.0" y="154.0" width="560.0" height="22.0" rx="0" class="box" />
<text x="308.0" y="169.0" class="h" >3</text>
<text x="330.0" y="169.0" class="t" >Cluster illumination</text>
<text x="700.0" y="169.0" class="b" >16 VIO/WHT</text>
<text x="800.0" y="169.0" class="t" >LIVE</text>
<rect x="300.0" y="176.0" width="560.0" height="22.0" rx="0" class="box" />
<text x="308.0" y="191.0" class="h" >4</text>
<text x="330.0" y="191.0" class="t" >Tachometer</text>
<text x="700.0" y="191.0" class="b" >16 sh shielded</text>
<text x="800.0" y="191.0" class="t" >LIVE</text>
<rect x="300.0" y="198.0" width="560.0" height="22.0" rx="0" class="box" />
<text x="308.0" y="213.0" class="h" >5</text>
<text x="330.0" y="213.0" class="t" >Water temp gauge</text>
<text x="700.0" y="213.0" class="b" >16 GRY/GRN</text>
<text x="800.0" y="213.0" class="t" >LIVE</text>
<rect x="300.0" y="220.0" width="560.0" height="22.0" rx="0" class="box" />
<text x="308.0" y="235.0" class="h" >6</text>
<text x="330.0" y="235.0" class="t" >Oil pressure gauge</text>
<text x="700.0" y="235.0" class="b" >16 GRY/BLU</text>
<text x="800.0" y="235.0" class="t" >LIVE</text>
<rect x="300.0" y="242.0" width="560.0" height="22.0" rx="0" class="box" />
<text x="308.0" y="257.0" class="h" >7</text>
<text x="330.0" y="257.0" class="t" >Fuel gauge</text>
<text x="700.0" y="257.0" class="b" >16 GRY/YEL</text>
<text x="800.0" y="257.0" class="t" >LIVE</text>
<rect x="300.0" y="264.0" width="560.0" height="22.0" rx="0" class="box" />
<text x="308.0" y="279.0" class="h" >8</text>
<text x="330.0" y="279.0" class="t" >Charge warning lamp</text>
<text x="700.0" y="279.0" class="b" >16 GRY/WHT</text>
<text x="800.0" y="279.0" class="t" >LIVE</text>
<rect x="300.0" y="286.0" width="560.0" height="22.0" rx="0" class="box" />
<text x="308.0" y="301.0" class="h" >9</text>
<text x="330.0" y="301.0" class="t" >Brake warning lamp</text>
<text x="700.0" y="301.0" class="b" >16 GRY/PNK</text>
<text x="800.0" y="301.0" class="t" >LIVE</text>
<rect x="300.0" y="308.0" width="560.0" height="22.0" rx="0" class="box" />
<text x="308.0" y="323.0" class="h" >10</text>
<text x="330.0" y="323.0" class="t" >Turn LEFT indicator</text>
<text x="700.0" y="323.0" class="b" >16 VIO/GRN</text>
<text x="800.0" y="323.0" class="t" >LIVE</text>
<rect x="300.0" y="330.0" width="560.0" height="22.0" rx="0" class="box" />
<text x="308.0" y="345.0" class="h" >11</text>
<text x="330.0" y="345.0" class="t" >Turn RIGHT indicator</text>
<text x="700.0" y="345.0" class="b" >16 VIO/YEL</text>
<text x="800.0" y="345.0" class="t" >LIVE</text>
<rect x="300.0" y="352.0" width="560.0" height="22.0" rx="0" class="box" />
<text x="308.0" y="367.0" class="h" >12</text>
<text x="330.0" y="367.0" class="t" >High-beam indicator</text>
<text x="700.0" y="367.0" class="b" >16 RED/BRN</text>
<text x="800.0" y="367.0" class="t" >LIVE</text>
<rect x="300.0" y="392.0" width="560.0" height="26.0" rx="3" class="hdr" />
<text x="308.0" y="409.0" class="w" font-weight="700">DP-DIAG</text>
<text x="390.0" y="409.0" class="w" >DTM06-4S → DTM04-4P · 4 cav · Glovebox</text>
<rect x="300.0" y="418.0" width="560.0" height="22.0" rx="0" class="box" />
<text x="308.0" y="433.0" class="h" >1</text>
<text x="330.0" y="433.0" class="t" >CAN1 H</text>
<text x="700.0" y="433.0" class="b" >16 tw YEL</text>
<text x="800.0" y="433.0" class="t" >LIVE</text>
<rect x="300.0" y="440.0" width="560.0" height="22.0" rx="0" class="box" />
<text x="308.0" y="455.0" class="h" >2</text>
<text x="330.0" y="455.0" class="t" >CAN1 L</text>
<text x="700.0" y="455.0" class="b" >16 tw GRN</text>
<text x="800.0" y="455.0" class="t" >LIVE</text>
<rect x="300.0" y="462.0" width="560.0" height="22.0" rx="0" class="box" />
<text x="308.0" y="477.0" class="h" >3</text>
<text x="330.0" y="477.0" class="t" >+12 V constant</text>
<text x="700.0" y="477.0" class="b" >16 RED</text>
<text x="800.0" y="477.0" class="t" >LIVE</text>
<rect x="300.0" y="484.0" width="560.0" height="22.0" rx="0" class="box" />
<text x="308.0" y="499.0" class="h" >4</text>
<text x="330.0" y="499.0" class="t" >Ground</text>
<text x="700.0" y="499.0" class="b" >16 BLK</text>
<text x="800.0" y="499.0" class="t" >LIVE</text>
<rect x="300.0" y="524.0" width="560.0" height="26.0" rx="3" class="hdr" />
<text x="308.0" y="541.0" class="w" font-weight="700">DP-ICU</text>
<text x="390.0" y="541.0" class="w" >DT06-12S → DT04-12P · 12 cav · Dash post</text>
<rect x="300.0" y="550.0" width="560.0" height="22.0" rx="0" class="zone" />
<text x="308.0" y="565.0" class="h" >1</text>
<text x="330.0" y="565.0" class="t" >+12 V switched</text>
<text x="700.0" y="565.0" class="b" >16 ORN/YEL</text>
<text x="800.0" y="565.0" class="d" >CAPPED</text>
<rect x="300.0" y="572.0" width="560.0" height="22.0" rx="0" class="zone" />
<text x="308.0" y="587.0" class="h" >2</text>
<text x="330.0" y="587.0" class="t" >Ground</text>
<text x="700.0" y="587.0" class="b" >16 BLK</text>
<text x="800.0" y="587.0" class="d" >CAPPED</text>
<rect x="300.0" y="594.0" width="560.0" height="22.0" rx="0" class="zone" />
<text x="308.0" y="609.0" class="h" >3</text>
<text x="330.0" y="609.0" class="t" >CAN2 H</text>
<text x="700.0" y="609.0" class="b" >16 tw YEL/BLK</text>
<text x="800.0" y="609.0" class="d" >CAPPED</text>
<rect x="300.0" y="616.0" width="560.0" height="22.0" rx="0" class="zone" />
<text x="308.0" y="631.0" class="h" >4</text>
<text x="330.0" y="631.0" class="t" >CAN2 L</text>
<text x="700.0" y="631.0" class="b" >16 tw GRN/BLK</text>
<text x="800.0" y="631.0" class="d" >CAPPED</text>
<rect x="300.0" y="638.0" width="560.0" height="22.0" rx="0" class="zone" />
<text x="308.0" y="653.0" class="h" >5</text>
<text x="330.0" y="653.0" class="t" >Illumination reference</text>
<text x="700.0" y="653.0" class="b" >16 VIO/WHT</text>
<text x="800.0" y="653.0" class="d" >CAPPED</text>
<rect x="300.0" y="660.0" width="560.0" height="22.0" rx="0" class="zone" />
<text x="308.0" y="675.0" class="h" >6</text>
<text x="330.0" y="675.0" class="t" >Water temp (tap)</text>
<text x="700.0" y="675.0" class="b" >16 GRY/GRN</text>
<text x="800.0" y="675.0" class="d" >CAPPED</text>
<rect x="300.0" y="682.0" width="560.0" height="22.0" rx="0" class="zone" />
<text x="308.0" y="697.0" class="h" >7</text>
<text x="330.0" y="697.0" class="t" >Oil pressure (tap)</text>
<text x="700.0" y="697.0" class="b" >16 GRY/BLU</text>
<text x="800.0" y="697.0" class="d" >CAPPED</text>
<rect x="300.0" y="704.0" width="560.0" height="22.0" rx="0" class="zone" />
<text x="308.0" y="719.0" class="h" >8</text>
<text x="330.0" y="719.0" class="t" >Spare</text>
<text x="700.0" y="719.0" class="b" >16 GRY</text>
<text x="800.0" y="719.0" class="d" >CAPPED</text>
<rect x="300.0" y="726.0" width="560.0" height="22.0" rx="0" class="zone" />
<text x="308.0" y="741.0" class="h" >9</text>
<text x="330.0" y="741.0" class="t" >Tach (tap)</text>
<text x="700.0" y="741.0" class="b" >16 GRY/YEL</text>
<text x="800.0" y="741.0" class="d" >CAPPED</text>
<rect x="300.0" y="748.0" width="560.0" height="22.0" rx="0" class="zone" />
<text x="308.0" y="763.0" class="h" >10</text>
<text x="330.0" y="763.0" class="t" >Spare</text>
<text x="700.0" y="763.0" class="b" >16 GRY</text>
<text x="800.0" y="763.0" class="d" >CAPPED</text>
<rect x="300.0" y="770.0" width="560.0" height="22.0" rx="0" class="zone" />
<text x="308.0" y="785.0" class="h" >11</text>
<text x="330.0" y="785.0" class="t" >Charge sense (tap)</text>
<text x="700.0" y="785.0" class="b" >16 GRY/WHT</text>
<text x="800.0" y="785.0" class="d" >CAPPED</text>
<rect x="300.0" y="792.0" width="560.0" height="22.0" rx="0" class="zone" />
<text x="308.0" y="807.0" class="h" >12</text>
<text x="330.0" y="807.0" class="t" >Brake warning (tap)</text>
<text x="700.0" y="807.0" class="b" >16 GRY/PNK</text>
<text x="800.0" y="807.0" class="d" >CAPPED</text>
<rect x="300.0" y="832.0" width="560.0" height="26.0" rx="3" class="hdr" />
<text x="308.0" y="849.0" class="w" font-weight="700">DP-DCU</text>
<text x="390.0" y="849.0" class="w" >DT06-6S → DT04-6P · 6 cav · Dash post</text>
<rect x="300.0" y="858.0" width="560.0" height="22.0" rx="0" class="zone" />
<text x="308.0" y="873.0" class="h" >1</text>
<text x="330.0" y="873.0" class="t" >+12 V switched</text>
<text x="700.0" y="873.0" class="b" >16 ORN/YEL</text>
<text x="800.0" y="873.0" class="d" >CAPPED</text>
<rect x="300.0" y="880.0" width="560.0" height="22.0" rx="0" class="zone" />
<text x="308.0" y="895.0" class="h" >2</text>
<text x="330.0" y="895.0" class="t" >Spare</text>
<text x="700.0" y="895.0" class="b" >16 GRY</text>
<text x="800.0" y="895.0" class="d" >CAPPED</text>
<rect x="300.0" y="902.0" width="560.0" height="22.0" rx="0" class="zone" />
<text x="308.0" y="917.0" class="h" >3</text>
<text x="330.0" y="917.0" class="t" >Ground</text>
<text x="700.0" y="917.0" class="b" >16 BLK</text>
<text x="800.0" y="917.0" class="d" >CAPPED</text>
<rect x="300.0" y="924.0" width="560.0" height="22.0" rx="0" class="zone" />
<text x="308.0" y="939.0" class="h" >4</text>
<text x="330.0" y="939.0" class="t" >CAN2 H</text>
<text x="700.0" y="939.0" class="b" >16 tw YEL/BLK</text>
<text x="800.0" y="939.0" class="d" >CAPPED</text>
<rect x="300.0" y="946.0" width="560.0" height="22.0" rx="0" class="zone" />
<text x="308.0" y="961.0" class="h" >5</text>
<text x="330.0" y="961.0" class="t" >CAN2 L</text>
<text x="700.0" y="961.0" class="b" >16 tw GRN/BLK</text>
<text x="800.0" y="961.0" class="d" >CAPPED</text>
<rect x="300.0" y="968.0" width="560.0" height="22.0" rx="0" class="zone" />
<text x="308.0" y="983.0" class="h" >6</text>
<text x="330.0" y="983.0" class="t" >Spare</text>
<text x="700.0" y="983.0" class="b" >16 GRY</text>
<text x="800.0" y="983.0" class="d" >CAPPED</text>
<rect x="300.0" y="1008.0" width="560.0" height="26.0" rx="3" class="hdr" />
<text x="308.0" y="1025.0" class="w" font-weight="700">DP-KEY</text>
<text x="390.0" y="1025.0" class="w" >DTM06-4S → DTM04-4P · 4 cav · Dash</text>
<rect x="300.0" y="1034.0" width="560.0" height="22.0" rx="0" class="zone" />
<text x="308.0" y="1049.0" class="h" >1</text>
<text x="330.0" y="1049.0" class="t" >CAN2 H</text>
<text x="700.0" y="1049.0" class="b" >16 tw YEL/BLK</text>
<text x="800.0" y="1049.0" class="d" >CAPPED</text>
<rect x="300.0" y="1056.0" width="560.0" height="22.0" rx="0" class="zone" />
<text x="308.0" y="1071.0" class="h" >2</text>
<text x="330.0" y="1071.0" class="t" >CAN2 L</text>
<text x="700.0" y="1071.0" class="b" >16 tw GRN/BLK</text>
<text x="800.0" y="1071.0" class="d" >CAPPED</text>
<rect x="300.0" y="1078.0" width="560.0" height="22.0" rx="0" class="zone" />
<text x="308.0" y="1093.0" class="h" >3</text>
<text x="330.0" y="1093.0" class="t" >+12 V switched</text>
<text x="700.0" y="1093.0" class="b" >16 ORN/YEL</text>
<text x="800.0" y="1093.0" class="d" >CAPPED</text>
<rect x="300.0" y="1100.0" width="560.0" height="22.0" rx="0" class="zone" />
<text x="308.0" y="1115.0" class="h" >4</text>
<text x="330.0" y="1115.0" class="t" >Ground</text>
<text x="700.0" y="1115.0" class="b" >16 BLK</text>
<text x="800.0" y="1115.0" class="d" >CAPPED</text>
<rect x="20.0" y="112.0" width="250.0" height="18.0" rx="3" class="zone" />
<text x="26.0" y="125.0" class="t" >F16 (5 A) ← O12</text>
<path d="M 270.0 121.0 L 294.0 121.0 L 276.0 121.0 L 300.0 121.0" class="red"/>
<path d="M 860.0 121.0 L 890.0 121.0" class="red"/>
<text x="900.0" y="125.0" class="t" >Cluster plug — factory GY (ignition feed to the gauges and lamps)</text>
<rect x="20.0" y="134.0" width="250.0" height="18.0" rx="3" class="zone" />
<text x="26.0" y="147.0" class="t" >DP-GND</text>
<path d="M 270.0 143.0 L 294.0 143.0 L 276.0 143.0 L 300.0 143.0" class="gnd"/>
<path d="M 860.0 143.0 L 890.0 143.0" class="gnd"/>
<text x="900.0" y="147.0" class="t" >Cluster plug — factory B</text>
<rect x="20.0" y="156.0" width="250.0" height="18.0" rx="3" class="zone" />
<text x="26.0" y="169.0" class="t" >O20 (pin 34)</text>
<path d="M 270.0 165.0 L 294.0 165.0 L 276.0 165.0 L 300.0 165.0" class="vio"/>
<path d="M 860.0 165.0 L 890.0 165.0" class="vio"/>
<text x="900.0" y="169.0" class="t" >Cluster plug — factory RL</text>
<rect x="20.0" y="178.0" width="250.0" height="18.0" rx="3" class="zone" />
<text x="26.0" y="191.0" class="t" >← L1-S1 6 (shielded)</text>
<path d="M 270.0 187.0 L 294.0 187.0 L 276.0 187.0 L 300.0 187.0" class="gry"/>
<path d="M 860.0 187.0 L 890.0 187.0" class="gry"/>
<text x="900.0" y="191.0" class="t" >Cluster plug — factory YG</text>
<rect x="20.0" y="200.0" width="250.0" height="18.0" rx="3" class="zone" />
<text x="26.0" y="213.0" class="t" >← L1-S1 3</text>
<path d="M 270.0 209.0 L 294.0 209.0 L 276.0 209.0 L 300.0 209.0" class="gry"/>
<path d="M 860.0 209.0 L 890.0 209.0" class="gry"/>
<text x="900.0" y="213.0" class="t" >Cluster plug — factory YW</text>
<rect x="20.0" y="222.0" width="250.0" height="18.0" rx="3" class="zone" />
<text x="26.0" y="235.0" class="t" >← L1-S1 4</text>
<path d="M 270.0 231.0 L 294.0 231.0 L 276.0 231.0 L 300.0 231.0" class="gry"/>
<path d="M 860.0 231.0 L 890.0 231.0" class="gry"/>
<text x="900.0" y="235.0" class="t" >Cluster plug — factory BrY</text>
<rect x="20.0" y="244.0" width="250.0" height="18.0" rx="3" class="zone" />
<text x="26.0" y="257.0" class="t" >← L4-S 1 (A7 taps this conductor)</text>
<path d="M 270.0 253.0 L 294.0 253.0 L 276.0 253.0 L 300.0 253.0" class="gry"/>
<path d="M 860.0 253.0 L 890.0 253.0" class="gry"/>
<text x="900.0" y="257.0" class="t" >Cluster plug — factory Y</text>
<rect x="20.0" y="266.0" width="250.0" height="18.0" rx="3" class="zone" />
<text x="26.0" y="279.0" class="t" >← L1-S2 8</text>
<path d="M 270.0 275.0 L 294.0 275.0 L 276.0 275.0 L 300.0 275.0" class="gry"/>
<path d="M 860.0 275.0 L 890.0 275.0" class="gry"/>
<text x="900.0" y="279.0" class="t" >Cluster plug — the charge-lamp terminal (identify at the cluster plug)</text>
<rect x="20.0" y="288.0" width="250.0" height="18.0" rx="3" class="zone" />
<text x="26.0" y="301.0" class="t" >← L1-S2 1 + L3-S2 11</text>
<path d="M 270.0 297.0 L 294.0 297.0 L 276.0 297.0 L 300.0 297.0" class="gry"/>
<path d="M 860.0 297.0 L 890.0 297.0" class="gry"/>
<text x="900.0" y="301.0" class="t" >Cluster plug — factory BR</text>
<rect x="20.0" y="310.0" width="250.0" height="18.0" rx="3" class="zone" />
<text x="26.0" y="323.0" class="t" >O17 (pin 6)</text>
<path d="M 270.0 319.0 L 294.0 319.0 L 276.0 319.0 L 300.0 319.0" class="vio"/>
<path d="M 860.0 319.0 L 890.0 319.0" class="vio"/>
<text x="900.0" y="323.0" class="t" >Cluster plug — factory GR</text>
<rect x="20.0" y="332.0" width="250.0" height="18.0" rx="3" class="zone" />
<text x="26.0" y="345.0" class="t" >O18 (pin 33)</text>
<path d="M 270.0 341.0 L 294.0 341.0 L 276.0 341.0 L 300.0 341.0" class="vio"/>
<path d="M 860.0 341.0 L 890.0 341.0" class="vio"/>
<text x="900.0" y="345.0" class="t" >Cluster plug — factory GO</text>
<rect x="20.0" y="354.0" width="250.0" height="18.0" rx="3" class="zone" />
<text x="26.0" y="367.0" class="t" >O3 (pin 26), 16 AWG tap</text>
<path d="M 270.0 363.0 L 294.0 363.0 L 276.0 363.0 L 300.0 363.0" class="red"/>
<path d="M 860.0 363.0 L 890.0 363.0" class="red"/>
<text x="900.0" y="367.0" class="t" >Cluster plug — factory RY</text>
<rect x="20.0" y="420.0" width="250.0" height="18.0" rx="3" class="zone" />
<text x="26.0" y="433.0" class="t" >CAN1H (pin 23)</text>
<path d="M 270.0 429.0 L 294.0 429.0 L 276.0 429.0 L 300.0 429.0" class="can"/>
<path d="M 860.0 429.0 L 890.0 429.0" class="can"/>
<text x="900.0" y="433.0" class="t" >Laptop port in the glovebox — 120 Ω across 1/2 inside the plug</text>
<rect x="20.0" y="442.0" width="250.0" height="18.0" rx="3" class="zone" />
<text x="26.0" y="455.0" class="t" >CAN1L (pin 36)</text>
<path d="M 270.0 451.0 L 294.0 451.0 L 276.0 451.0 L 300.0 451.0" class="can"/>
<path d="M 860.0 451.0 L 890.0 451.0" class="can"/>
<text x="900.0" y="455.0" class="t" >Laptop port</text>
<rect x="20.0" y="464.0" width="250.0" height="18.0" rx="3" class="zone" />
<text x="26.0" y="477.0" class="t" >F2 (2 A)</text>
<path d="M 270.0 473.0 L 294.0 473.0 L 276.0 473.0 L 300.0 473.0" class="red"/>
<path d="M 860.0 473.0 L 890.0 473.0" class="red"/>
<text x="900.0" y="477.0" class="t" >Laptop port</text>
<rect x="20.0" y="486.0" width="250.0" height="18.0" rx="3" class="zone" />
<text x="26.0" y="499.0" class="t" >DP-GND</text>
<path d="M 270.0 495.0 L 294.0 495.0 L 276.0 495.0 L 300.0 495.0" class="gnd"/>
<path d="M 860.0 495.0 L 890.0 495.0" class="gnd"/>
<text x="900.0" y="499.0" class="t" >Laptop port</text>
<rect x="20.0" y="552.0" width="250.0" height="18.0" rx="3" class="zone" />
<text x="26.0" y="565.0" class="t" >O10 (pin 4)</text>
<path d="M 270.0 561.0 L 294.0 561.0 L 276.0 561.0 L 300.0 561.0" class="cap"/>
<path d="M 860.0 561.0 L 890.0 561.0" class="cap"/>
<text x="900.0" y="565.0" class="d" >Capped at the post</text>
<rect x="20.0" y="574.0" width="250.0" height="18.0" rx="3" class="zone" />
<text x="26.0" y="587.0" class="t" >DP-GND</text>
<path d="M 270.0 583.0 L 294.0 583.0 L 276.0 583.0 L 300.0 583.0" class="cap"/>
<path d="M 860.0 583.0 L 890.0 583.0" class="cap"/>
<text x="900.0" y="587.0" class="d" >Capped at the post</text>
<rect x="20.0" y="596.0" width="250.0" height="18.0" rx="3" class="zone" />
<text x="26.0" y="609.0" class="t" >CAN2H (pin 24)</text>
<path d="M 270.0 605.0 L 294.0 605.0 L 276.0 605.0 L 300.0 605.0" class="cap"/>
<path d="M 860.0 605.0 L 890.0 605.0" class="cap"/>
<text x="900.0" y="609.0" class="d" >Capped at the post</text>
<rect x="20.0" y="618.0" width="250.0" height="18.0" rx="3" class="zone" />
<text x="26.0" y="631.0" class="t" >CAN2L (pin 37)</text>
<path d="M 270.0 627.0 L 294.0 627.0 L 276.0 627.0 L 300.0 627.0" class="cap"/>
<path d="M 860.0 627.0 L 890.0 627.0" class="cap"/>
<text x="900.0" y="631.0" class="d" >Capped at the post</text>
<rect x="20.0" y="640.0" width="250.0" height="18.0" rx="3" class="zone" />
<text x="26.0" y="653.0" class="t" >O20 (pin 34)</text>
<path d="M 270.0 649.0 L 294.0 649.0 L 276.0 649.0 L 300.0 649.0" class="cap"/>
<path d="M 860.0 649.0 L 890.0 649.0" class="cap"/>
<text x="900.0" y="653.0" class="d" >Capped at the post</text>
<rect x="20.0" y="662.0" width="250.0" height="18.0" rx="3" class="zone" />
<text x="26.0" y="675.0" class="t" >tap on L1-S1 3</text>
<path d="M 270.0 671.0 L 294.0 671.0 L 276.0 671.0 L 300.0 671.0" class="cap"/>
<path d="M 860.0 671.0 L 890.0 671.0" class="cap"/>
<text x="900.0" y="675.0" class="d" >Capped at the post</text>
<rect x="20.0" y="684.0" width="250.0" height="18.0" rx="3" class="zone" />
<text x="26.0" y="697.0" class="t" >tap on L1-S1 4</text>
<path d="M 270.0 693.0 L 294.0 693.0 L 276.0 693.0 L 300.0 693.0" class="cap"/>
<path d="M 860.0 693.0 L 890.0 693.0" class="cap"/>
<text x="900.0" y="697.0" class="d" >Capped at the post</text>
<rect x="20.0" y="706.0" width="250.0" height="18.0" rx="3" class="zone" />
<text x="26.0" y="719.0" class="t" >capped</text>
<path d="M 270.0 715.0 L 294.0 715.0 L 276.0 715.0 L 300.0 715.0" class="cap"/>
<path d="M 860.0 715.0 L 890.0 715.0" class="cap"/>
<text x="900.0" y="719.0" class="d" >Capped at the post</text>
<rect x="20.0" y="728.0" width="250.0" height="18.0" rx="3" class="zone" />
<text x="26.0" y="741.0" class="t" >tap on L1-S1 6</text>
<path d="M 270.0 737.0 L 294.0 737.0 L 276.0 737.0 L 300.0 737.0" class="cap"/>
<path d="M 860.0 737.0 L 890.0 737.0" class="cap"/>
<text x="900.0" y="741.0" class="d" >Capped at the post</text>
<rect x="20.0" y="750.0" width="250.0" height="18.0" rx="3" class="zone" />
<text x="26.0" y="763.0" class="t" >capped</text>
<path d="M 270.0 759.0 L 294.0 759.0 L 276.0 759.0 L 300.0 759.0" class="cap"/>
<path d="M 860.0 759.0 L 890.0 759.0" class="cap"/>
<text x="900.0" y="763.0" class="d" >Capped at the post</text>
<rect x="20.0" y="772.0" width="250.0" height="18.0" rx="3" class="zone" />
<text x="26.0" y="785.0" class="t" >tap on L1-S2 8</text>
<path d="M 270.0 781.0 L 294.0 781.0 L 276.0 781.0 L 300.0 781.0" class="cap"/>
<path d="M 860.0 781.0 L 890.0 781.0" class="cap"/>
<text x="900.0" y="785.0" class="d" >Capped at the post</text>
<rect x="20.0" y="794.0" width="250.0" height="18.0" rx="3" class="zone" />
<text x="26.0" y="807.0" class="t" >tap on the DP-CLU 9 node</text>
<path d="M 270.0 803.0 L 294.0 803.0 L 276.0 803.0 L 300.0 803.0" class="cap"/>
<path d="M 860.0 803.0 L 890.0 803.0" class="cap"/>
<text x="900.0" y="807.0" class="d" >Capped at the post</text>
<rect x="20.0" y="860.0" width="250.0" height="18.0" rx="3" class="zone" />
<text x="26.0" y="873.0" class="t" >O10 (pin 4)</text>
<path d="M 270.0 869.0 L 294.0 869.0 L 276.0 869.0 L 300.0 869.0" class="cap"/>
<path d="M 860.0 869.0 L 890.0 869.0" class="cap"/>
<text x="900.0" y="873.0" class="d" >Capped at the post</text>
<rect x="20.0" y="882.0" width="250.0" height="18.0" rx="3" class="zone" />
<text x="26.0" y="895.0" class="t" >capped</text>
<path d="M 270.0 891.0 L 294.0 891.0 L 276.0 891.0 L 300.0 891.0" class="cap"/>
<path d="M 860.0 891.0 L 890.0 891.0" class="cap"/>
<text x="900.0" y="895.0" class="d" >Capped at the post</text>
<rect x="20.0" y="904.0" width="250.0" height="18.0" rx="3" class="zone" />
<text x="26.0" y="917.0" class="t" >DP-GND</text>
<path d="M 270.0 913.0 L 294.0 913.0 L 276.0 913.0 L 300.0 913.0" class="cap"/>
<path d="M 860.0 913.0 L 890.0 913.0" class="cap"/>
<text x="900.0" y="917.0" class="d" >Capped at the post</text>
<rect x="20.0" y="926.0" width="250.0" height="18.0" rx="3" class="zone" />
<text x="26.0" y="939.0" class="t" >CAN2H (pin 24)</text>
<path d="M 270.0 935.0 L 294.0 935.0 L 276.0 935.0 L 300.0 935.0" class="cap"/>
<path d="M 860.0 935.0 L 890.0 935.0" class="cap"/>
<text x="900.0" y="939.0" class="d" >Capped at the post</text>
<rect x="20.0" y="948.0" width="250.0" height="18.0" rx="3" class="zone" />
<text x="26.0" y="961.0" class="t" >CAN2L (pin 37)</text>
<path d="M 270.0 957.0 L 294.0 957.0 L 276.0 957.0 L 300.0 957.0" class="cap"/>
<path d="M 860.0 957.0 L 890.0 957.0" class="cap"/>
<text x="900.0" y="961.0" class="d" >Capped at the post</text>
<rect x="20.0" y="970.0" width="250.0" height="18.0" rx="3" class="zone" />
<text x="26.0" y="983.0" class="t" >capped</text>
<path d="M 270.0 979.0 L 294.0 979.0 L 276.0 979.0 L 300.0 979.0" class="cap"/>
<path d="M 860.0 979.0 L 890.0 979.0" class="cap"/>
<text x="900.0" y="983.0" class="d" >Capped at the post</text>
<rect x="20.0" y="1036.0" width="250.0" height="18.0" rx="3" class="zone" />
<text x="26.0" y="1049.0" class="t" >CAN2H (pin 24)</text>
<path d="M 270.0 1045.0 L 294.0 1045.0 L 276.0 1045.0 L 300.0 1045.0" class="cap"/>
<path d="M 860.0 1045.0 L 890.0 1045.0" class="cap"/>
<text x="900.0" y="1049.0" class="d" >Capped behind the dash</text>
<rect x="20.0" y="1058.0" width="250.0" height="18.0" rx="3" class="zone" />
<text x="26.0" y="1071.0" class="t" >CAN2L (pin 37)</text>
<path d="M 270.0 1067.0 L 294.0 1067.0 L 276.0 1067.0 L 300.0 1067.0" class="cap"/>
<path d="M 860.0 1067.0 L 890.0 1067.0" class="cap"/>
<text x="900.0" y="1071.0" class="d" >Capped behind the dash</text>
<rect x="20.0" y="1080.0" width="250.0" height="18.0" rx="3" class="zone" />
<text x="26.0" y="1093.0" class="t" >O10 (pin 4)</text>
<path d="M 270.0 1089.0 L 294.0 1089.0 L 276.0 1089.0 L 300.0 1089.0" class="cap"/>
<path d="M 860.0 1089.0 L 890.0 1089.0" class="cap"/>
<text x="900.0" y="1093.0" class="d" >Capped behind the dash</text>
<rect x="20.0" y="1102.0" width="250.0" height="18.0" rx="3" class="zone" />
<text x="26.0" y="1115.0" class="t" >DP-GND</text>
<path d="M 270.0 1111.0 L 294.0 1111.0 L 276.0 1111.0 L 300.0 1111.0" class="cap"/>
<path d="M 860.0 1111.0 L 890.0 1111.0" class="cap"/>
<text x="900.0" y="1115.0" class="d" >Capped behind the dash</text>
</svg>